# xmcd
#
# Track frame offsets:
#	150
#	12027
#	31285
#	45398
#	63942
#	77334
#	88874
#	106070
#	120133
#	139683
#	151621
#	172240
#	186668
#
# Disc length: 2662 seconds
# Revision: 0
# Processed by: cddbd v1.5.2PL0 Copyright (c) Steve Scherf et al.
# Submitted via: dBpowerAMP V12.0
#
DISCID=930a640d
DTITLE=Ronnie Stoneman - Bummin' Around
DYEAR=2008
DGENRE=Bluegrass
TTITLE0=Bummin' Around
TTITLE1=A Wound Time Can't Erase
TTITLE2=My Baby's Gone
TTITLE3=Send Me The Pillow
TTITLE4=I'll Hold You In My Heart
TTITLE5=Sunny Side Of The Street
TTITLE6=I Love You So Much
TTITLE7=If You've Got Leavin' On Your Mind
TTITLE8=Sure Like To Hear From You
TTITLE9=Blue Ridge Mountain Blues
TTITLE10=Tecumseh Valley
TTITLE11=South To Mexico
TTITLE12=Poor Tramp Has To Live
EXTD=
EXTT0=
EXTT1=
EXTT2=
EXTT3=
EXTT4=
EXTT5=
EXTT6=
EXTT7=
EXTT8=
EXTT9=
EXTT10=
EXTT11=
EXTT12=
PLAYORDER=
